# xmcd
#
# Track frame offsets: 
#        150
#        975
#        16035
#        42552
#        66780
#        97362
#        111615
#        130085
#        159455
#        177432
#        202315
#        221007
#        249902
#        284660
#
# Disc length: 4298 seconds
#
# Revision: 1
# Processed by: cddbd v1.5.2PL0 Copyright (c) Steve Scherf et al.
# Submitted via: ExactAudioCopyFreeDBPlugin 1.0
#
DISCID=d210c80e
DTITLE=Oldtime Blues and Boogie Duo - Live Again
DYEAR=1998
DGENRE=Blues
TTITLE0=Intro
TTITLE1=Take A Walk With Me
TTITLE2=Rambling On My Mind
TTITLE3=Talk To Me Baby
TTITLE4=Highway Blues
TTITLE5=Papa On The Housetop
TTITLE6=Chicago Breakdown
TTITLE7=Ain't Nobody's Bussiness
TTITLE8=Midnight Steppers
TTITLE9=Hocchie Coochie Man
TTITLE10=Police Dog Blues
TTITLE11=Hesitation Blues
TTITLE12=Low Down
TTITLE13=Walk On
EXTD=
EXTT0=
EXTT1=
EXTT2=
EXTT3=
EXTT4=
EXTT5=
EXTT6=
EXTT7=
EXTT8=
EXTT9=
EXTT10=
EXTT11=
EXTT12=
EXTT13=
PLAYORDER=
